<svg xmlns="http://www.w3.org/2000/svg" viewBox="0 0 600 600" role="img" aria-label="蜂巢 Fengchao">
  <title>蜂巢 Fengchao</title>
  <style>
    /* A parked bee replaces the flying one when the viewer asks for less motion. */
    #parked { visibility: hidden; }
    @media (prefers-reduced-motion: reduce) {
      #flight { visibility: hidden; }
      #parked { visibility: visible; }
    }
  </style>
  <defs>
    <path id="orbit" d="M300.0 81.3 C290.6 81.9 280.9 84.1 272.0 87.4 C263.1 90.6 254.5 95.6 246.7 101.0 C238.9 106.4 231.8 113.2 225.3 119.7 C218.8 126.3 213.2 133.5 207.7 140.1 C202.2 146.8 197.3 153.4 192.1 159.4 C186.9 165.4 181.8 170.9 176.3 176.3 C170.7 181.6 164.8 186.4 158.7 191.6 C152.5 196.7 145.8 201.6 139.5 207.3 C133.1 213.0 126.3 218.9 120.5 225.7 C114.8 232.4 109.1 239.8 104.8 247.7 C100.5 255.6 97.0 264.3 94.9 273.0 C92.8 281.7 91.9 291.0 92.1 300.0 C92.2 309.0 93.7 318.1 95.7 326.9 C97.7 335.6 100.8 344.2 104.1 352.5 C107.3 360.8 111.2 368.7 115.2 376.6 C119.1 384.4 123.4 392.0 127.8 399.4 C132.3 406.9 136.9 414.2 142.0 421.3 C147.1 428.3 152.5 435.3 158.5 441.5 C164.5 447.8 171.0 453.9 178.0 459.0 C185.0 464.1 192.7 468.6 200.6 472.2 C208.4 475.8 216.9 478.5 225.2 480.5 C233.6 482.6 242.2 483.6 250.6 484.5 C258.9 485.4 267.3 485.5 275.5 485.9 C283.8 486.3 291.8 486.5 300.0 486.9 C308.2 487.3 316.3 487.9 324.8 488.5 C333.3 489.1 342.0 490.0 351.0 490.3 C360.0 490.6 369.4 491.0 378.8 490.1 C388.1 489.3 397.9 488.0 407.0 485.3 C416.0 482.5 425.2 478.6 433.1 473.5 C441.0 468.3 448.4 461.7 454.4 454.4 C460.3 447.1 465.2 438.3 468.8 429.5 C472.5 420.8 474.6 411.0 476.2 401.7 C477.8 392.5 478.1 382.9 478.4 373.9 C478.6 364.9 478.1 356.1 478.0 347.7 C477.8 339.3 477.5 331.3 477.6 323.4 C477.7 315.4 478.1 307.8 478.4 300.0 C478.8 292.2 479.6 284.4 479.8 276.3 C480.0 268.3 480.4 260.1 479.8 251.8 C479.3 243.6 478.4 235.1 476.5 226.9 C474.6 218.7 472.0 210.5 468.6 202.7 C465.2 194.9 460.9 187.3 456.2 180.1 C451.5 173.0 446.0 166.2 440.4 159.6 C434.7 153.1 428.5 146.9 422.2 140.8 C415.8 134.7 409.1 128.8 402.1 123.1 C395.1 117.4 387.9 111.7 380.1 106.6 C372.3 101.5 364.2 96.5 355.6 92.6 C347.0 88.8 337.8 85.3 328.5 83.4 C319.3 81.5 309.4 80.6 300.0 81.3 Z"/>
    <clipPath id="abdomen"><ellipse cx="-8" cy="0" rx="17.5" ry="11.6"/></clipPath>
    <g id="bee">
      <!-- Wings, in the original mark's style: slender outlined blades, not soft
           filled ellipses. Each flutters about its own root near the thorax. -->
      <g class="wing">
        <ellipse cx="-6.6" cy="-18.2" rx="19.5" ry="6.4" transform="rotate(40 -6.6 -18.2)"
                 fill="#ffffff" stroke="#241e17" stroke-width="1.7"/>
        <animateTransform attributeName="transform" type="rotate" additive="sum"
          values="0 8 -6; -22 8 -6; 0 8 -6" dur=".13s" repeatCount="indefinite"/>
      </g>
      <g class="wing">
        <ellipse cx="-6.6" cy="18.2" rx="19.5" ry="6.4" transform="rotate(-40 -6.6 18.2)"
                 fill="#ffffff" stroke="#241e17" stroke-width="1.7"/>
        <animateTransform attributeName="transform" type="rotate" additive="sum"
          values="0 8 6; 22 8 6; 0 8 6" dur=".13s" repeatCount="indefinite"/>
      </g>
      <!-- stinger -->
      <path d="M-25 0 l-7.5 0" stroke="#241e17" stroke-width="2.6" stroke-linecap="round"/>
      <!-- abdomen: gold with three black bands, clipped to the body outline -->
      <g clip-path="url(#abdomen)">
        <ellipse cx="-8" cy="0" rx="17.5" ry="11.6" fill="#e8b34a"/>
        <rect x="-23.5" y="-13" width="5.4" height="26" fill="#241e17"/>
        <rect x="-13.6" y="-13" width="5.6" height="26" fill="#241e17"/>
        <rect x="-3.4"  y="-13" width="5.8" height="26" fill="#241e17"/>
      </g>
      <!-- thorax + head -->
      <ellipse cx="9.5" cy="0" rx="9" ry="9.4" fill="#241e17"/>
      <circle cx="20" cy="0" r="7.6" fill="#241e17"/>
      <!-- two eyes -->
      <circle cx="23" cy="-3.7" r="2.5" fill="#ffffff"/>
      <circle cx="23" cy="3.7"  r="2.5" fill="#ffffff"/>
      <circle cx="24.1" cy="-3.7" r="1.25" fill="#241e17"/>
      <circle cx="24.1" cy="3.7"  r="1.25" fill="#241e17"/>
      <!-- antennae -->
      <path d="M22.5 -5.6 q6.5 -4.5 9.5 -9.5" fill="none" stroke="#241e17" stroke-width="1.9" stroke-linecap="round"/>
      <path d="M22.5 5.6 q6.5 4.5 9.5 9.5"  fill="none" stroke="#241e17" stroke-width="1.9" stroke-linecap="round"/>
      <circle cx="32.6" cy="-15.4" r="1.9" fill="#241e17"/>
      <circle cx="32.6" cy="15.4"  r="1.9" fill="#241e17"/>
    </g>
  </defs>

  <!-- honeycomb: six cells around a darker centre carrying the cross -->
  <g>
    <path fill="#e7c48a" d="M365.0 183.5 L332.5 239.8 L267.5 239.8 L235.0 183.5 L267.5 127.2 L332.5 127.2 Z"/>
    <path fill="#e0ad58" d="M264.0 241.5 L231.5 297.8 L166.5 297.8 L134.0 241.5 L166.5 185.2 L231.5 185.2 Z"/>
    <path fill="#e5c185" d="M466.0 241.5 L433.5 297.8 L368.5 297.8 L336.0 241.5 L368.5 185.2 L433.5 185.2 Z"/>
    <path fill="#e5bd7d" d="M264.0 358.5 L231.5 414.8 L166.5 414.8 L134.0 358.5 L166.5 302.2 L231.5 302.2 Z"/>
    <path fill="#deaa52" d="M466.0 358.5 L433.5 414.8 L368.5 414.8 L336.0 358.5 L368.5 302.2 L433.5 302.2 Z"/>
    <path fill="#ddac52" d="M365.0 416.5 L332.5 472.8 L267.5 472.8 L235.0 416.5 L267.5 360.2 L332.5 360.2 Z"/>
    <path fill="#c18d41" d="M365.0 300.0 L332.5 356.3 L267.5 356.3 L235.0 300.0 L267.5 243.7 L332.5 243.7 Z"/>
  </g>
  <path fill="#ffffff" d="M292 257 h16 v25 h16 v16 h-16 v45 h-16 v-45 h-16 v-16 h16 Z"/>

  <!-- the ring the bee flies -->
  <path d="M265.00 81.21A70.00 70.00 0 0 1 335.00 81.21 L471.98 160.29A70.00 70.00 0 0 1 506.98 220.91 L506.98 379.09A70.00 70.00 0 0 1 471.98 439.71 L335.00 518.79A70.00 70.00 0 0 1 265.00 518.79 L128.02 439.71A70.00 70.00 0 0 1 93.02 379.09 L93.02 220.91A70.00 70.00 0 0 1 128.02 160.29 Z" fill="none" stroke="#e0af56" stroke-width="10" stroke-linejoin="round"/>

  <!-- Flight, not a track ride: the loop wanders across the ring, the body
       rolls off the tangent, and the bee weaves and rises as it goes. -->
  <g id="flight">
    <g>
      <g>
        <g>
          <use href="#bee" transform="scale(1.5)"/>
          <!-- rise and fall, as if working the air -->
          <animateTransform attributeName="transform" type="scale" additive="sum"
            values="1;1.05;0.97;1" dur="3.7s" repeatCount="indefinite" calcMode="spline"
            keyTimes="0;0.33;0.7;1" keySplines=".45 0 .55 1;.45 0 .55 1;.45 0 .55 1"/>
        </g>
        <!-- weave across the line of travel -->
        <animateTransform attributeName="transform" type="translate" additive="sum"
          values="0 -10; 0 11; 0 -10" dur="1.45s" repeatCount="indefinite" calcMode="spline"
          keyTimes="0;0.5;1" keySplines=".45 0 .55 1;.45 0 .55 1"/>
        <!-- the body is never rigidly tangent to the path -->
        <animateTransform attributeName="transform" type="rotate" additive="sum"
          values="-13; 11; -13" dur="2.9s" repeatCount="indefinite" calcMode="spline"
          keyTimes="0;0.5;1" keySplines=".42 0 .58 1;.42 0 .58 1"/>
      </g>
      <animateMotion dur="16s" repeatCount="indefinite" rotate="auto"
        calcMode="spline" keyPoints="0.0000;0.0833;0.1667;0.2500;0.3333;0.4167;0.5000;0.5833;0.6667;0.7500;0.8333;0.9167;1.0000" keyTimes="0.0000;0.1024;0.1857;0.2500;0.3143;0.3976;0.5000;0.6024;0.6857;0.7500;0.8143;0.8976;1.0000"
        keySplines="0.4 0 0.6 1;0.4 0 0.6 1;0.4 0 0.6 1;0.4 0 0.6 1;0.4 0 0.6 1;0.4 0 0.6 1;0.4 0 0.6 1;0.4 0 0.6 1;0.4 0 0.6 1;0.4 0 0.6 1;0.4 0 0.6 1;0.4 0 0.6 1">
        <mpath href="#orbit"/>
      </animateMotion>
    </g>
  </g>
  <g id="parked" transform="translate(300 64) scale(1.5)"><use href="#bee" transform="rotate(180)"/></g>
</svg>
